<mxfile host="app.diagrams.net" agent="Mozilla/5.0 (Windows NT 10.0; Win64; x64) AppleWebKit/537.36 (KHTML, like Gecko) Chrome/122.0.0.0 Safari/537.36" version="27.0.4">
  <diagram name="Pagina-1" id="-p1elMYsu_wJQjBSrHkD">
    <mxGraphModel dx="2911" dy="1054" grid="0" gridSize="7" guides="1" tooltips="1" connect="1" arrows="1" fold="1" page="1" pageScale="1" pageWidth="827" pageHeight="1169" background="none" math="0" shadow="0">
      <root>
        <mxCell id="0" />
        <mxCell id="1" parent="0" />
        <mxCell id="kCbmd7u-PkFG1ZoSzvHW-94" style="edgeStyle=orthogonalEdgeStyle;rounded=0;orthogonalLoop=1;jettySize=auto;html=1;entryX=0;entryY=0.5;entryDx=0;entryDy=0;labelBackgroundColor=none;strokeColor=#3700CC;fontColor=#ffffff;fontSize=17;align=center;verticalAlign=top;fontFamily=Helvetica;fontStyle=1;horizontal=1;startSize=26;spacingLeft=4;spacingRight=4;fillStyle=auto;fillColor=#050043;dashed=1;dashPattern=12 12;" parent="1" target="kCbmd7u-PkFG1ZoSzvHW-6" edge="1">
          <mxGeometry relative="1" as="geometry">
            <mxPoint x="-150" y="470" as="targetPoint" />
            <Array as="points">
              <mxPoint x="-423" y="461" />
              <mxPoint x="-150" y="461" />
            </Array>
            <mxPoint x="-423.14285714285734" y="508.99999999999955" as="sourcePoint" />
          </mxGeometry>
        </mxCell>
        <mxCell id="kCbmd7u-PkFG1ZoSzvHW-98" style="edgeStyle=orthogonalEdgeStyle;rounded=0;orthogonalLoop=1;jettySize=auto;html=1;exitX=0.5;exitY=0;exitDx=0;exitDy=0;entryX=0;entryY=0.25;entryDx=0;entryDy=0;labelBackgroundColor=none;strokeColor=#3700CC;fontColor=#ffffff;fontSize=17;align=center;verticalAlign=top;fontFamily=Helvetica;fontStyle=1;horizontal=1;startSize=26;spacingLeft=4;spacingRight=4;fillStyle=auto;fillColor=#050043;dashed=1;dashPattern=12 12;" parent="1" target="kCbmd7u-PkFG1ZoSzvHW-86" edge="1">
          <mxGeometry relative="1" as="geometry">
            <mxPoint x="-423" y="508.99999999999955" as="sourcePoint" />
            <Array as="points">
              <mxPoint x="-279" y="510" />
              <mxPoint x="-279" y="32" />
            </Array>
          </mxGeometry>
        </mxCell>
        <mxCell id="kCbmd7u-PkFG1ZoSzvHW-1" value="Utente" style="swimlane;fontStyle=1;childLayout=stackLayout;horizontal=1;startSize=26;horizontalStack=0;resizeParent=1;resizeParentMax=0;resizeLast=0;collapsible=1;marginBottom=0;whiteSpace=wrap;html=1;labelBackgroundColor=none;rounded=0;fillColor=#050043;strokeColor=#3700CC;fontSize=17;align=center;verticalAlign=top;fontFamily=Helvetica;fontColor=#ffffff;spacingLeft=4;spacingRight=4;fillStyle=auto;" parent="1" vertex="1">
          <mxGeometry x="-493" y="406" width="140" height="208" as="geometry" />
        </mxCell>
        <mxCell id="kCbmd7u-PkFG1ZoSzvHW-2" value="- nome" style="text;strokeColor=#FFFFFF;fillColor=#182E3E;align=left;verticalAlign=top;spacingLeft=4;spacingRight=4;overflow=hidden;rotatable=0;points=[[0,0.5],[1,0.5]];portConstraint=eastwest;whiteSpace=wrap;html=1;labelBackgroundColor=none;rounded=0;fontSize=17;fontFamily=Helvetica;fontColor=#ffffff;fontStyle=1;horizontal=1;" parent="kCbmd7u-PkFG1ZoSzvHW-1" vertex="1">
          <mxGeometry y="26" width="140" height="26" as="geometry" />
        </mxCell>
        <mxCell id="kCbmd7u-PkFG1ZoSzvHW-3" value="- cognome" style="text;strokeColor=#FFFFFF;fillColor=#182E3E;align=left;verticalAlign=top;spacingLeft=4;spacingRight=4;overflow=hidden;rotatable=0;points=[[0,0.5],[1,0.5]];portConstraint=eastwest;whiteSpace=wrap;html=1;labelBackgroundColor=none;rounded=0;fontFamily=Helvetica;fontSize=17;fontColor=#ffffff;fontStyle=1;horizontal=1;" parent="kCbmd7u-PkFG1ZoSzvHW-1" vertex="1">
          <mxGeometry y="52" width="140" height="26" as="geometry" />
        </mxCell>
        <mxCell id="kCbmd7u-PkFG1ZoSzvHW-4" value="- data_nascita" style="text;strokeColor=#FFFFFF;fillColor=#182E3E;align=left;verticalAlign=top;spacingLeft=4;spacingRight=4;overflow=hidden;rotatable=0;points=[[0,0.5],[1,0.5]];portConstraint=eastwest;whiteSpace=wrap;html=1;labelBackgroundColor=none;rounded=0;fontSize=17;fontFamily=Helvetica;fontColor=#ffffff;fontStyle=1;horizontal=1;" parent="kCbmd7u-PkFG1ZoSzvHW-1" vertex="1">
          <mxGeometry y="78" width="140" height="26" as="geometry" />
        </mxCell>
        <mxCell id="kCbmd7u-PkFG1ZoSzvHW-5" value="- sesso" style="text;strokeColor=#FFFFFF;fillColor=#182E3E;align=left;verticalAlign=top;spacingLeft=4;spacingRight=4;overflow=hidden;rotatable=0;points=[[0,0.5],[1,0.5]];portConstraint=eastwest;whiteSpace=wrap;html=1;labelBackgroundColor=none;rounded=0;fontSize=17;fontFamily=Helvetica;fontColor=#ffffff;fontStyle=1;horizontal=1;" parent="kCbmd7u-PkFG1ZoSzvHW-1" vertex="1">
          <mxGeometry y="104" width="140" height="26" as="geometry" />
        </mxCell>
        <mxCell id="kCbmd7u-PkFG1ZoSzvHW-45" value="- email" style="text;strokeColor=#FFFFFF;fillColor=#182E3E;align=left;verticalAlign=top;spacingLeft=4;spacingRight=4;overflow=hidden;rotatable=0;points=[[0,0.5],[1,0.5]];portConstraint=eastwest;whiteSpace=wrap;html=1;labelBackgroundColor=none;rounded=0;fontSize=17;fontFamily=Helvetica;fontColor=#ffffff;fontStyle=1;horizontal=1;" parent="kCbmd7u-PkFG1ZoSzvHW-1" vertex="1">
          <mxGeometry y="130" width="140" height="26" as="geometry" />
        </mxCell>
        <mxCell id="kCbmd7u-PkFG1ZoSzvHW-127" value="- nome_utente" style="text;strokeColor=#FFFFFF;fillColor=#182E3E;align=left;verticalAlign=top;spacingLeft=4;spacingRight=4;overflow=hidden;rotatable=0;points=[[0,0.5],[1,0.5]];portConstraint=eastwest;whiteSpace=wrap;html=1;labelBackgroundColor=none;rounded=0;fontSize=17;fontFamily=Helvetica;fontColor=#ffffff;fontStyle=1;horizontal=1;" parent="kCbmd7u-PkFG1ZoSzvHW-1" vertex="1">
          <mxGeometry y="156" width="140" height="26" as="geometry" />
        </mxCell>
        <mxCell id="kCbmd7u-PkFG1ZoSzvHW-128" value="- password" style="text;strokeColor=#FFFFFF;fillColor=#182E3E;align=left;verticalAlign=top;spacingLeft=4;spacingRight=4;overflow=hidden;rotatable=0;points=[[0,0.5],[1,0.5]];portConstraint=eastwest;whiteSpace=wrap;html=1;labelBackgroundColor=none;rounded=0;fontSize=17;fontFamily=Helvetica;fontColor=#ffffff;fontStyle=1;horizontal=1;" parent="kCbmd7u-PkFG1ZoSzvHW-1" vertex="1">
          <mxGeometry y="182" width="140" height="26" as="geometry" />
        </mxCell>
        <mxCell id="kCbmd7u-PkFG1ZoSzvHW-100" value="&lt;font style=&quot;font-size: 18px;&quot;&gt;effettua&lt;/font&gt;" style="edgeStyle=orthogonalEdgeStyle;rounded=0;orthogonalLoop=1;jettySize=auto;html=1;exitX=0.5;exitY=0;exitDx=0;exitDy=0;entryX=0;entryY=0.5;entryDx=0;entryDy=0;labelBackgroundColor=none;strokeColor=#3700CC;fontColor=light-dark(#0000CC,#121212);fontSize=17;align=center;verticalAlign=top;fontFamily=Helvetica;fontStyle=1;horizontal=1;startSize=26;spacingLeft=4;spacingRight=4;fillStyle=auto;fillColor=#050043;" parent="1" source="kCbmd7u-PkFG1ZoSzvHW-6" target="kCbmd7u-PkFG1ZoSzvHW-70" edge="1">
          <mxGeometry x="0.2422" y="5" relative="1" as="geometry">
            <mxPoint as="offset" />
          </mxGeometry>
        </mxCell>
        <mxCell id="_CxxBRgzNqZnSZEakOLy-10" value="effettua" style="edgeStyle=orthogonalEdgeStyle;rounded=0;orthogonalLoop=1;jettySize=auto;html=1;entryX=0;entryY=0.5;entryDx=0;entryDy=0;fillStyle=auto;strokeColor=#3700CC;align=center;verticalAlign=top;spacingLeft=4;spacingRight=4;fontFamily=Helvetica;fontSize=17;fontColor=light-dark(#0000CC,#121212);fontStyle=1;labelBackgroundColor=none;horizontal=1;startSize=26;endArrow=classic;fillColor=#050043;" parent="1" source="kCbmd7u-PkFG1ZoSzvHW-6" target="kCbmd7u-PkFG1ZoSzvHW-11" edge="1">
          <mxGeometry x="-0.361" y="38" relative="1" as="geometry">
            <Array as="points">
              <mxPoint x="-66" y="858" />
            </Array>
            <mxPoint y="1" as="offset" />
          </mxGeometry>
        </mxCell>
        <mxCell id="kCbmd7u-PkFG1ZoSzvHW-6" value="Cliente" style="swimlane;fontStyle=1;childLayout=stackLayout;horizontal=1;startSize=26;fillColor=#050043;horizontalStack=0;resizeParent=1;resizeParentMax=0;resizeLast=0;collapsible=1;marginBottom=0;whiteSpace=wrap;html=1;labelBackgroundColor=none;strokeColor=#3700CC;rounded=0;fontSize=17;align=center;verticalAlign=top;fontFamily=Helvetica;fontColor=#ffffff;spacingLeft=4;spacingRight=4;fillStyle=auto;" parent="1" vertex="1">
          <mxGeometry x="-143" y="434" width="140" height="52" as="geometry" />
        </mxCell>
        <mxCell id="_CxxBRgzNqZnSZEakOLy-18" value="associata a&amp;nbsp;" style="edgeStyle=orthogonalEdgeStyle;rounded=0;orthogonalLoop=1;jettySize=auto;html=1;entryX=0;entryY=0.5;entryDx=0;entryDy=0;fillStyle=auto;strokeColor=#3700CC;align=center;verticalAlign=top;spacingLeft=4;spacingRight=4;fontFamily=Helvetica;fontSize=17;fontColor=light-dark(#0000CC,#121212);fontStyle=1;labelBackgroundColor=none;horizontal=1;startSize=26;endArrow=classic;fillColor=#050043;" parent="1" source="kCbmd7u-PkFG1ZoSzvHW-11" target="kCbmd7u-PkFG1ZoSzvHW-21" edge="1">
          <mxGeometry x="0.0071" y="-69" relative="1" as="geometry">
            <mxPoint y="1" as="offset" />
          </mxGeometry>
        </mxCell>
        <mxCell id="n7qIAD_MvcZAFEoEV1F9-1" value="pagato tramite" style="edgeStyle=orthogonalEdgeStyle;rounded=0;orthogonalLoop=1;jettySize=auto;html=1;entryX=0.5;entryY=1;entryDx=0;entryDy=0;fillStyle=auto;strokeColor=#3700CC;align=center;verticalAlign=top;spacingLeft=4;spacingRight=4;fontFamily=Helvetica;fontSize=17;fontColor=light-dark(#0000CC,#121212);fontStyle=1;labelBackgroundColor=none;horizontal=1;startSize=26;endArrow=classic;fillColor=#050043;" edge="1" parent="1" source="kCbmd7u-PkFG1ZoSzvHW-11" target="kCbmd7u-PkFG1ZoSzvHW-27">
          <mxGeometry x="-0.0506" y="-71" relative="1" as="geometry">
            <mxPoint as="offset" />
          </mxGeometry>
        </mxCell>
        <mxCell id="kCbmd7u-PkFG1ZoSzvHW-11" value="Prenotazione" style="swimlane;fontStyle=1;childLayout=stackLayout;horizontal=1;startSize=26;horizontalStack=0;resizeParent=1;resizeParentMax=0;resizeLast=0;collapsible=1;marginBottom=0;whiteSpace=wrap;html=1;labelBackgroundColor=none;rounded=0;fontSize=17;align=center;verticalAlign=top;fontFamily=Helvetica;spacingLeft=4;spacingRight=4;fillColor=#050043;strokeColor=#3700CC;fillStyle=auto;fontColor=#ffffff;" parent="1" vertex="1">
          <mxGeometry x="310" y="806" width="220" height="130" as="geometry" />
        </mxCell>
        <mxCell id="kCbmd7u-PkFG1ZoSzvHW-13" value="- orario_prenotazione" style="text;strokeColor=#FFFFFF;fillColor=#182E3E;align=left;verticalAlign=top;spacingLeft=4;spacingRight=4;overflow=hidden;rotatable=0;points=[[0,0.5],[1,0.5]];portConstraint=eastwest;whiteSpace=wrap;html=1;labelBackgroundColor=none;rounded=0;fontSize=17;fontFamily=Helvetica;fontColor=#ffffff;fontStyle=1;horizontal=1;" parent="kCbmd7u-PkFG1ZoSzvHW-11" vertex="1">
          <mxGeometry y="26" width="220" height="26" as="geometry" />
        </mxCell>
        <mxCell id="kCbmd7u-PkFG1ZoSzvHW-46" value="- data_prenotazione" style="text;strokeColor=#FFFFFF;fillColor=#182E3E;align=left;verticalAlign=top;spacingLeft=4;spacingRight=4;overflow=hidden;rotatable=0;points=[[0,0.5],[1,0.5]];portConstraint=eastwest;whiteSpace=wrap;html=1;labelBackgroundColor=none;rounded=0;fontSize=17;fontFamily=Helvetica;fontColor=#ffffff;fontStyle=1;horizontal=1;" parent="kCbmd7u-PkFG1ZoSzvHW-11" vertex="1">
          <mxGeometry y="52" width="220" height="26" as="geometry" />
        </mxCell>
        <mxCell id="kCbmd7u-PkFG1ZoSzvHW-49" value="- data_riservata" style="text;strokeColor=#FFFFFF;fillColor=#182E3E;align=left;verticalAlign=top;spacingLeft=4;spacingRight=4;overflow=hidden;rotatable=0;points=[[0,0.5],[1,0.5]];portConstraint=eastwest;whiteSpace=wrap;html=1;labelBackgroundColor=none;rounded=0;fontSize=17;fontFamily=Helvetica;fontColor=#ffffff;fontStyle=1;horizontal=1;" parent="kCbmd7u-PkFG1ZoSzvHW-11" vertex="1">
          <mxGeometry y="78" width="220" height="26" as="geometry" />
        </mxCell>
        <mxCell id="n7qIAD_MvcZAFEoEV1F9-8" value="- stato_pagamento" style="text;strokeColor=#FFFFFF;fillColor=#182E3E;align=left;verticalAlign=top;spacingLeft=4;spacingRight=4;overflow=hidden;rotatable=0;points=[[0,0.5],[1,0.5]];portConstraint=eastwest;whiteSpace=wrap;html=1;labelBackgroundColor=none;rounded=0;fontSize=17;fontFamily=Helvetica;fontColor=#ffffff;fontStyle=1;horizontal=1;" vertex="1" parent="kCbmd7u-PkFG1ZoSzvHW-11">
          <mxGeometry y="104" width="220" height="26" as="geometry" />
        </mxCell>
        <mxCell id="kCbmd7u-PkFG1ZoSzvHW-21" value="Campo" style="swimlane;fontStyle=1;childLayout=stackLayout;horizontal=1;startSize=26;fillColor=#050043;horizontalStack=0;resizeParent=1;resizeParentMax=0;resizeLast=0;collapsible=1;marginBottom=0;whiteSpace=wrap;html=1;labelBackgroundColor=none;strokeColor=#3700CC;rounded=0;fontSize=17;align=center;verticalAlign=top;fontFamily=Helvetica;fontColor=#ffffff;spacingLeft=4;spacingRight=4;fillStyle=auto;" parent="1" vertex="1">
          <mxGeometry x="898" y="441" width="226" height="156" as="geometry" />
        </mxCell>
        <mxCell id="kCbmd7u-PkFG1ZoSzvHW-22" value="- sport" style="text;strokeColor=#FFFFFF;fillColor=#182E3E;align=left;verticalAlign=top;spacingLeft=4;spacingRight=4;overflow=hidden;rotatable=0;points=[[0,0.5],[1,0.5]];portConstraint=eastwest;whiteSpace=wrap;html=1;labelBackgroundColor=none;rounded=0;fontSize=17;fontFamily=Helvetica;fontColor=#ffffff;fontStyle=1;horizontal=1;" parent="kCbmd7u-PkFG1ZoSzvHW-21" vertex="1">
          <mxGeometry y="26" width="226" height="26" as="geometry" />
        </mxCell>
        <mxCell id="kCbmd7u-PkFG1ZoSzvHW-23" value="- numero" style="text;strokeColor=#FFFFFF;fillColor=#182E3E;align=left;verticalAlign=top;spacingLeft=4;spacingRight=4;overflow=hidden;rotatable=0;points=[[0,0.5],[1,0.5]];portConstraint=eastwest;whiteSpace=wrap;html=1;labelBackgroundColor=none;rounded=0;fontSize=17;fontFamily=Helvetica;fontColor=#ffffff;fontStyle=1;horizontal=1;" parent="kCbmd7u-PkFG1ZoSzvHW-21" vertex="1">
          <mxGeometry y="52" width="226" height="26" as="geometry" />
        </mxCell>
        <mxCell id="kCbmd7u-PkFG1ZoSzvHW-24" value="- tipologia_terreno" style="text;strokeColor=#FFFFFF;fillColor=#182E3E;align=left;verticalAlign=top;spacingLeft=4;spacingRight=4;overflow=hidden;rotatable=0;points=[[0,0.5],[1,0.5]];portConstraint=eastwest;whiteSpace=wrap;html=1;labelBackgroundColor=none;rounded=0;fontSize=17;fontFamily=Helvetica;fontColor=#ffffff;fontStyle=1;horizontal=1;" parent="kCbmd7u-PkFG1ZoSzvHW-21" vertex="1">
          <mxGeometry y="78" width="226" height="26" as="geometry" />
        </mxCell>
        <mxCell id="kCbmd7u-PkFG1ZoSzvHW-25" value="- coperto/scoperto" style="text;strokeColor=#FFFFFF;fillColor=#182E3E;align=left;verticalAlign=top;spacingLeft=4;spacingRight=4;overflow=hidden;rotatable=0;points=[[0,0.5],[1,0.5]];portConstraint=eastwest;whiteSpace=wrap;html=1;labelBackgroundColor=none;rounded=0;fontSize=17;fontFamily=Helvetica;fontColor=#ffffff;fontStyle=1;horizontal=1;" parent="kCbmd7u-PkFG1ZoSzvHW-21" vertex="1">
          <mxGeometry y="104" width="226" height="26" as="geometry" />
        </mxCell>
        <mxCell id="kCbmd7u-PkFG1ZoSzvHW-26" value="- costo/h" style="text;strokeColor=#FFFFFF;fillColor=#182E3E;align=left;verticalAlign=top;spacingLeft=4;spacingRight=4;overflow=hidden;rotatable=0;points=[[0,0.5],[1,0.5]];portConstraint=eastwest;whiteSpace=wrap;html=1;labelBackgroundColor=none;rounded=0;fontSize=17;fontFamily=Helvetica;fontColor=#ffffff;fontStyle=1;horizontal=1;" parent="kCbmd7u-PkFG1ZoSzvHW-21" vertex="1">
          <mxGeometry y="130" width="226" height="26" as="geometry" />
        </mxCell>
        <mxCell id="_CxxBRgzNqZnSZEakOLy-11" style="edgeStyle=orthogonalEdgeStyle;rounded=0;orthogonalLoop=1;jettySize=auto;html=1;entryX=1;entryY=0.5;entryDx=0;entryDy=0;fillStyle=auto;strokeColor=#3700CC;align=center;verticalAlign=top;spacingLeft=4;spacingRight=4;fontFamily=Helvetica;fontSize=17;fontColor=light-dark(#0000CC,#121212);fontStyle=1;labelBackgroundColor=none;horizontal=1;startSize=26;endArrow=classic;fillColor=#050043;" parent="1" source="kCbmd7u-PkFG1ZoSzvHW-27" target="kCbmd7u-PkFG1ZoSzvHW-6" edge="1">
          <mxGeometry relative="1" as="geometry" />
        </mxCell>
        <mxCell id="kCbmd7u-PkFG1ZoSzvHW-27" value="Metodo di Pagamento&amp;nbsp;" style="swimlane;fontStyle=1;childLayout=stackLayout;horizontal=1;startSize=34;fillColor=#050043;horizontalStack=0;resizeParent=1;resizeParentMax=0;resizeLast=0;collapsible=1;marginBottom=0;whiteSpace=wrap;html=1;labelBackgroundColor=none;strokeColor=#3700CC;rounded=0;fontSize=17;align=center;verticalAlign=top;fontFamily=Helvetica;fontColor=#ffffff;spacingLeft=4;spacingRight=4;fillStyle=auto;" parent="1" vertex="1">
          <mxGeometry x="303" y="430" width="234" height="60" as="geometry" />
        </mxCell>
        <mxCell id="kCbmd7u-PkFG1ZoSzvHW-125" value="crea/elimina" style="edgeStyle=orthogonalEdgeStyle;rounded=0;orthogonalLoop=1;jettySize=auto;html=1;entryX=1;entryY=0.5;entryDx=0;entryDy=0;labelBackgroundColor=none;strokeColor=#3700CC;fontColor=light-dark(#0000CC,#121212);fontSize=17;align=center;verticalAlign=top;fontFamily=Helvetica;fontStyle=1;horizontal=1;startSize=26;spacingLeft=4;spacingRight=4;fillStyle=auto;fillColor=#050043;endArrow=classic;" parent="1" source="kCbmd7u-PkFG1ZoSzvHW-65" target="kCbmd7u-PkFG1ZoSzvHW-81" edge="1">
          <mxGeometry x="0.3454" y="63" relative="1" as="geometry">
            <Array as="points">
              <mxPoint x="-10" y="1146" />
              <mxPoint x="1313" y="1146" />
              <mxPoint x="1313" y="163" />
            </Array>
            <mxPoint y="-1" as="offset" />
          </mxGeometry>
        </mxCell>
        <mxCell id="kCbmd7u-PkFG1ZoSzvHW-65" value="Dipendente" style="swimlane;fontStyle=1;childLayout=stackLayout;horizontal=1;startSize=26;fillColor=#050043;horizontalStack=0;resizeParent=1;resizeParentMax=0;resizeLast=0;collapsible=1;marginBottom=0;whiteSpace=wrap;html=1;labelBackgroundColor=none;strokeColor=#3700CC;rounded=0;fontSize=17;align=center;verticalAlign=top;fontFamily=Helvetica;fontColor=#ffffff;spacingLeft=4;spacingRight=4;fillStyle=auto;" parent="1" vertex="1">
          <mxGeometry x="-80" y="1062" width="140" height="52" as="geometry" />
        </mxCell>
        <mxCell id="kCbmd7u-PkFG1ZoSzvHW-90" value="- stipendio" style="text;strokeColor=#FFFFFF;fillColor=#182E3E;align=left;verticalAlign=top;spacingLeft=4;spacingRight=4;overflow=hidden;rotatable=0;points=[[0,0.5],[1,0.5]];portConstraint=eastwest;whiteSpace=wrap;html=1;labelBackgroundColor=none;rounded=0;fontSize=17;fontFamily=Helvetica;fontColor=#ffffff;fontStyle=1;horizontal=1;" parent="kCbmd7u-PkFG1ZoSzvHW-65" vertex="1">
          <mxGeometry y="26" width="140" height="26" as="geometry" />
        </mxCell>
        <mxCell id="kCbmd7u-PkFG1ZoSzvHW-68" value="Iscrizione" style="swimlane;fontStyle=1;childLayout=stackLayout;horizontal=1;startSize=26;horizontalStack=0;resizeParent=1;resizeParentMax=0;resizeLast=0;collapsible=1;marginBottom=0;whiteSpace=wrap;html=1;labelBackgroundColor=none;rounded=0;fillColor=#050043;strokeColor=#3700CC;fontSize=17;align=center;verticalAlign=top;fontFamily=Helvetica;fontColor=#ffffff;spacingLeft=4;spacingRight=4;fillStyle=auto;" parent="1" vertex="1">
          <mxGeometry x="296" y="144" width="235" height="78" as="geometry" />
        </mxCell>
        <mxCell id="kCbmd7u-PkFG1ZoSzvHW-70" value="- orario_iscrizione" style="text;strokeColor=#FFFFFF;fillColor=#182E3E;align=left;verticalAlign=top;spacingLeft=4;spacingRight=4;overflow=hidden;rotatable=0;points=[[0,0.5],[1,0.5]];portConstraint=eastwest;whiteSpace=wrap;html=1;labelBackgroundColor=none;rounded=0;fontSize=17;fontFamily=Helvetica;fontColor=#ffffff;fontStyle=1;horizontal=1;" parent="kCbmd7u-PkFG1ZoSzvHW-68" vertex="1">
          <mxGeometry y="26" width="235" height="26" as="geometry" />
        </mxCell>
        <mxCell id="kCbmd7u-PkFG1ZoSzvHW-71" value="- data_iscrizione" style="text;strokeColor=#FFFFFF;fillColor=#182E3E;align=left;verticalAlign=top;spacingLeft=4;spacingRight=4;overflow=hidden;rotatable=0;points=[[0,0.5],[1,0.5]];portConstraint=eastwest;whiteSpace=wrap;html=1;labelBackgroundColor=none;rounded=0;fontSize=17;fontFamily=Helvetica;fontColor=#ffffff;fontStyle=1;horizontal=1;" parent="kCbmd7u-PkFG1ZoSzvHW-68" vertex="1">
          <mxGeometry y="52" width="235" height="26" as="geometry" />
        </mxCell>
        <mxCell id="kCbmd7u-PkFG1ZoSzvHW-121" value="si svolge" style="edgeStyle=orthogonalEdgeStyle;rounded=0;orthogonalLoop=1;jettySize=auto;html=1;entryX=0.5;entryY=0;entryDx=0;entryDy=0;labelBackgroundColor=none;strokeColor=#3700CC;fontColor=light-dark(#0000CC,#121212);fontSize=17;align=center;verticalAlign=top;fontFamily=Helvetica;fontStyle=1;horizontal=1;startSize=26;spacingLeft=4;spacingRight=4;fillStyle=auto;fillColor=#050043;endArrow=classic;" parent="1" edge="1">
          <mxGeometry x="-0.1279" y="47" relative="1" as="geometry">
            <Array as="points">
              <mxPoint x="1010" y="280" />
            </Array>
            <mxPoint x="999.0000000000005" y="280" as="sourcePoint" />
            <mxPoint x="1010" y="441" as="targetPoint" />
            <mxPoint as="offset" />
          </mxGeometry>
        </mxCell>
        <mxCell id="kCbmd7u-PkFG1ZoSzvHW-77" value="Corso" style="swimlane;fontStyle=1;childLayout=stackLayout;horizontal=1;startSize=26;fillColor=#050043;horizontalStack=0;resizeParent=1;resizeParentMax=0;resizeLast=0;collapsible=1;marginBottom=0;whiteSpace=wrap;html=1;labelBackgroundColor=none;strokeColor=#3700CC;rounded=0;fontSize=17;align=center;verticalAlign=top;fontFamily=Helvetica;fontColor=#ffffff;spacingLeft=4;spacingRight=4;fillStyle=auto;" parent="1" vertex="1">
          <mxGeometry x="987" y="46" width="177" height="234" as="geometry" />
        </mxCell>
        <mxCell id="kCbmd7u-PkFG1ZoSzvHW-78" value="- nome" style="text;strokeColor=#FFFFFF;fillColor=#182E3E;align=left;verticalAlign=top;spacingLeft=4;spacingRight=4;overflow=hidden;rotatable=0;points=[[0,0.5],[1,0.5]];portConstraint=eastwest;whiteSpace=wrap;html=1;labelBackgroundColor=none;rounded=0;fontSize=17;fontFamily=Helvetica;fontColor=#ffffff;fontStyle=1;horizontal=1;" parent="kCbmd7u-PkFG1ZoSzvHW-77" vertex="1">
          <mxGeometry y="26" width="177" height="26" as="geometry" />
        </mxCell>
        <mxCell id="kCbmd7u-PkFG1ZoSzvHW-79" value="- descrizione" style="text;strokeColor=#FFFFFF;fillColor=#182E3E;align=left;verticalAlign=top;spacingLeft=4;spacingRight=4;overflow=hidden;rotatable=0;points=[[0,0.5],[1,0.5]];portConstraint=eastwest;whiteSpace=wrap;html=1;labelBackgroundColor=none;rounded=0;fontSize=17;fontFamily=Helvetica;fontColor=#ffffff;fontStyle=1;horizontal=1;" parent="kCbmd7u-PkFG1ZoSzvHW-77" vertex="1">
          <mxGeometry y="52" width="177" height="26" as="geometry" />
        </mxCell>
        <mxCell id="kCbmd7u-PkFG1ZoSzvHW-80" value="-&amp;nbsp; data_inizio" style="text;strokeColor=#FFFFFF;fillColor=#182E3E;align=left;verticalAlign=top;spacingLeft=4;spacingRight=4;overflow=hidden;rotatable=0;points=[[0,0.5],[1,0.5]];portConstraint=eastwest;whiteSpace=wrap;html=1;labelBackgroundColor=none;rounded=0;fontSize=17;fontFamily=Helvetica;fontColor=#ffffff;fontStyle=1;horizontal=1;" parent="kCbmd7u-PkFG1ZoSzvHW-77" vertex="1">
          <mxGeometry y="78" width="177" height="26" as="geometry" />
        </mxCell>
        <mxCell id="kCbmd7u-PkFG1ZoSzvHW-81" value="- data_fine" style="text;strokeColor=#FFFFFF;fillColor=#182E3E;align=left;verticalAlign=top;spacingLeft=4;spacingRight=4;overflow=hidden;rotatable=0;points=[[0,0.5],[1,0.5]];portConstraint=eastwest;whiteSpace=wrap;html=1;labelBackgroundColor=none;rounded=0;fontSize=17;fontFamily=Helvetica;fontColor=#ffffff;fontStyle=1;horizontal=1;" parent="kCbmd7u-PkFG1ZoSzvHW-77" vertex="1">
          <mxGeometry y="104" width="177" height="26" as="geometry" />
        </mxCell>
        <mxCell id="kCbmd7u-PkFG1ZoSzvHW-82" value="- campo" style="text;strokeColor=#FFFFFF;fillColor=#182E3E;align=left;verticalAlign=top;spacingLeft=4;spacingRight=4;overflow=hidden;rotatable=0;points=[[0,0.5],[1,0.5]];portConstraint=eastwest;whiteSpace=wrap;html=1;labelBackgroundColor=none;rounded=0;fontSize=17;fontFamily=Helvetica;fontColor=#ffffff;fontStyle=1;horizontal=1;" parent="kCbmd7u-PkFG1ZoSzvHW-77" vertex="1">
          <mxGeometry y="130" width="177" height="26" as="geometry" />
        </mxCell>
        <mxCell id="kCbmd7u-PkFG1ZoSzvHW-83" value="- orario" style="text;strokeColor=#FFFFFF;fillColor=#182E3E;align=left;verticalAlign=top;spacingLeft=4;spacingRight=4;overflow=hidden;rotatable=0;points=[[0,0.5],[1,0.5]];portConstraint=eastwest;whiteSpace=wrap;html=1;labelBackgroundColor=none;rounded=0;fontSize=17;fontFamily=Helvetica;fontColor=#ffffff;fontStyle=1;horizontal=1;" parent="kCbmd7u-PkFG1ZoSzvHW-77" vertex="1">
          <mxGeometry y="156" width="177" height="26" as="geometry" />
        </mxCell>
        <mxCell id="kCbmd7u-PkFG1ZoSzvHW-84" value="- costo_iscrizione" style="text;strokeColor=#FFFFFF;fillColor=#182E3E;align=left;verticalAlign=top;spacingLeft=4;spacingRight=4;overflow=hidden;rotatable=0;points=[[0,0.5],[1,0.5]];portConstraint=eastwest;whiteSpace=wrap;html=1;labelBackgroundColor=none;rounded=0;fontSize=17;fontFamily=Helvetica;fontColor=#ffffff;fontStyle=1;horizontal=1;" parent="kCbmd7u-PkFG1ZoSzvHW-77" vertex="1">
          <mxGeometry y="182" width="177" height="26" as="geometry" />
        </mxCell>
        <mxCell id="kCbmd7u-PkFG1ZoSzvHW-85" value="- max_iscritti" style="text;strokeColor=#FFFFFF;fillColor=#182E3E;align=left;verticalAlign=top;spacingLeft=4;spacingRight=4;overflow=hidden;rotatable=0;points=[[0,0.5],[1,0.5]];portConstraint=eastwest;whiteSpace=wrap;html=1;labelBackgroundColor=none;rounded=0;fontSize=17;fontFamily=Helvetica;fontColor=#ffffff;fontStyle=1;horizontal=1;" parent="kCbmd7u-PkFG1ZoSzvHW-77" vertex="1">
          <mxGeometry y="208" width="177" height="26" as="geometry" />
        </mxCell>
        <mxCell id="kCbmd7u-PkFG1ZoSzvHW-115" value="gestisce" style="edgeStyle=orthogonalEdgeStyle;rounded=0;orthogonalLoop=1;jettySize=auto;html=1;labelBackgroundColor=none;strokeColor=#3700CC;fontColor=light-dark(#0000CC,#121212);fontSize=17;align=center;verticalAlign=top;fontFamily=Helvetica;fontStyle=1;horizontal=1;startSize=26;spacingLeft=4;spacingRight=4;fillStyle=auto;fillColor=#050043;endArrow=classic;" parent="1" source="kCbmd7u-PkFG1ZoSzvHW-86" edge="1">
          <mxGeometry x="0.0006" y="42" relative="1" as="geometry">
            <mxPoint x="986" y="50" as="targetPoint" />
            <mxPoint as="offset" />
          </mxGeometry>
        </mxCell>
        <mxCell id="kCbmd7u-PkFG1ZoSzvHW-86" value="Istruttore" style="swimlane;fontStyle=1;childLayout=stackLayout;horizontal=1;startSize=26;fillColor=#050043;horizontalStack=0;resizeParent=1;resizeParentMax=0;resizeLast=0;collapsible=1;marginBottom=0;whiteSpace=wrap;html=1;labelBackgroundColor=none;strokeColor=#3700CC;rounded=0;fontSize=17;align=center;verticalAlign=top;fontFamily=Helvetica;fontColor=#ffffff;spacingLeft=4;spacingRight=4;fillStyle=auto;" parent="1" vertex="1">
          <mxGeometry x="-136" y="12" width="140" height="78" as="geometry" />
        </mxCell>
        <mxCell id="kCbmd7u-PkFG1ZoSzvHW-89" value="- cv" style="text;strokeColor=#FFFFFF;fillColor=#182E3E;align=left;verticalAlign=top;spacingLeft=4;spacingRight=4;overflow=hidden;rotatable=0;points=[[0,0.5],[1,0.5]];portConstraint=eastwest;whiteSpace=wrap;html=1;rounded=0;horizontal=1;labelBackgroundColor=none;fontColor=#ffffff;fontFamily=Helvetica;fontSize=17;fontStyle=1;" parent="kCbmd7u-PkFG1ZoSzvHW-86" vertex="1">
          <mxGeometry y="26" width="140" height="26" as="geometry" />
        </mxCell>
        <mxCell id="kCbmd7u-PkFG1ZoSzvHW-91" value="- paga" style="text;strokeColor=#FFFFFF;fillColor=#182E3E;align=left;verticalAlign=top;spacingLeft=4;spacingRight=4;overflow=hidden;rotatable=0;points=[[0,0.5],[1,0.5]];portConstraint=eastwest;whiteSpace=wrap;html=1;rounded=0;horizontal=1;labelBackgroundColor=none;fontColor=#ffffff;fontFamily=Helvetica;fontSize=17;fontStyle=1;" parent="kCbmd7u-PkFG1ZoSzvHW-86" vertex="1">
          <mxGeometry y="52" width="140" height="26" as="geometry" />
        </mxCell>
        <mxCell id="kCbmd7u-PkFG1ZoSzvHW-97" style="edgeStyle=orthogonalEdgeStyle;rounded=0;orthogonalLoop=1;jettySize=auto;html=1;exitX=1;exitY=0.5;exitDx=0;exitDy=0;entryX=0;entryY=0.5;entryDx=0;entryDy=0;labelBackgroundColor=none;strokeColor=#3700CC;fontColor=#ffffff;fontSize=17;align=center;verticalAlign=top;fontFamily=Helvetica;fontStyle=1;horizontal=1;startSize=26;spacingLeft=4;spacingRight=4;fillStyle=auto;fillColor=#050043;dashed=1;dashPattern=12 12;" parent="1" edge="1">
          <mxGeometry relative="1" as="geometry">
            <mxPoint x="-80" y="1101" as="targetPoint" />
            <Array as="points">
              <mxPoint x="-123" y="600" />
              <mxPoint x="-123" y="1101" />
            </Array>
            <mxPoint x="-353" y="600" as="sourcePoint" />
          </mxGeometry>
        </mxCell>
        <mxCell id="kCbmd7u-PkFG1ZoSzvHW-122" value="riguarda" style="edgeStyle=orthogonalEdgeStyle;rounded=0;orthogonalLoop=1;jettySize=auto;html=1;entryX=0;entryY=0.5;entryDx=0;entryDy=0;labelBackgroundColor=none;strokeColor=#3700CC;fontColor=light-dark(#0000CC,#121212);fontSize=17;align=center;verticalAlign=top;fontFamily=Helvetica;fontStyle=1;horizontal=1;startSize=26;spacingLeft=4;spacingRight=4;fillStyle=auto;fillColor=#050043;endArrow=classic;exitX=1;exitY=0.25;exitDx=0;exitDy=0;" parent="1" source="kCbmd7u-PkFG1ZoSzvHW-68" target="kCbmd7u-PkFG1ZoSzvHW-81" edge="1">
          <mxGeometry x="-0.0429" y="39" relative="1" as="geometry">
            <mxPoint x="555" y="163" as="sourcePoint" />
            <Array as="points">
              <mxPoint x="525" y="163" />
            </Array>
            <mxPoint as="offset" />
          </mxGeometry>
        </mxCell>
        <mxCell id="hdYtZ7cg-BLqjW4fkA_a-9" value="1" style="text;html=1;align=center;verticalAlign=middle;whiteSpace=wrap;rounded=0;fontFamily=Helvetica;fontSize=17;fontColor=light-dark(#0000CC,#121212);fontStyle=1;labelBackgroundColor=none;horizontal=1;" parent="1" vertex="1">
          <mxGeometry x="-84" y="398" width="60" height="30" as="geometry" />
        </mxCell>
        <mxCell id="hdYtZ7cg-BLqjW4fkA_a-10" value="0..*" style="text;html=1;align=center;verticalAlign=middle;whiteSpace=wrap;rounded=0;fontFamily=Helvetica;fontSize=17;fontColor=light-dark(#0000CC,#121212);fontStyle=1;labelBackgroundColor=none;horizontal=1;" parent="1" vertex="1">
          <mxGeometry x="243" y="188" width="60" height="30" as="geometry" />
        </mxCell>
        <mxCell id="hdYtZ7cg-BLqjW4fkA_a-16" value="1" style="text;html=1;align=center;verticalAlign=middle;whiteSpace=wrap;rounded=0;fontFamily=Helvetica;fontSize=17;fontColor=light-dark(#0000CC,#121212);fontStyle=1;labelBackgroundColor=none;horizontal=1;" parent="1" vertex="1">
          <mxGeometry x="1011" y="283" width="60" height="30" as="geometry" />
        </mxCell>
        <mxCell id="hdYtZ7cg-BLqjW4fkA_a-17" value="1" style="text;html=1;align=center;verticalAlign=middle;whiteSpace=wrap;rounded=0;fontFamily=Helvetica;fontSize=17;fontColor=light-dark(#0000CC,#121212);fontStyle=1;labelBackgroundColor=none;horizontal=1;" parent="1" vertex="1">
          <mxGeometry x="1011" y="400" width="60" height="30" as="geometry" />
        </mxCell>
        <mxCell id="hdYtZ7cg-BLqjW4fkA_a-18" value="1..*" style="text;html=1;align=center;verticalAlign=middle;whiteSpace=wrap;rounded=0;fontFamily=Helvetica;fontSize=17;fontColor=light-dark(#0000CC,#121212);fontStyle=1;labelBackgroundColor=none;horizontal=1;" parent="1" vertex="1">
          <mxGeometry x="523" y="96" width="60" height="82" as="geometry" />
        </mxCell>
        <mxCell id="hdYtZ7cg-BLqjW4fkA_a-19" value="1" style="text;html=1;align=center;verticalAlign=middle;whiteSpace=wrap;rounded=0;fontFamily=Helvetica;fontSize=17;fontColor=light-dark(#0000CC,#121212);fontStyle=1;labelBackgroundColor=none;horizontal=1;" parent="1" vertex="1">
          <mxGeometry x="922" y="122" width="60" height="30" as="geometry" />
        </mxCell>
        <mxCell id="hdYtZ7cg-BLqjW4fkA_a-20" style="edgeStyle=orthogonalEdgeStyle;shape=connector;rounded=0;fillStyle=auto;orthogonalLoop=1;jettySize=auto;html=1;exitX=0.5;exitY=1;exitDx=0;exitDy=0;strokeColor=#3700CC;align=center;verticalAlign=top;spacingLeft=4;spacingRight=4;fontFamily=Helvetica;fontSize=17;fontColor=light-dark(#0000CC,#121212);fontStyle=1;labelBackgroundColor=none;horizontal=1;startSize=26;endArrow=classic;fillColor=#050043;" parent="1" source="hdYtZ7cg-BLqjW4fkA_a-18" target="hdYtZ7cg-BLqjW4fkA_a-18" edge="1">
          <mxGeometry relative="1" as="geometry" />
        </mxCell>
        <mxCell id="hdYtZ7cg-BLqjW4fkA_a-21" value="1" style="text;html=1;align=center;verticalAlign=middle;whiteSpace=wrap;rounded=0;fontFamily=Helvetica;fontSize=17;fontColor=light-dark(#0000CC,#121212);fontStyle=1;labelBackgroundColor=none;horizontal=1;" parent="1" vertex="1">
          <mxGeometry x="14" y="12" width="60" height="30" as="geometry" />
        </mxCell>
        <mxCell id="hdYtZ7cg-BLqjW4fkA_a-22" value="0..*" style="text;html=1;align=center;verticalAlign=middle;whiteSpace=wrap;rounded=0;fontFamily=Helvetica;fontSize=17;fontColor=light-dark(#0000CC,#121212);fontStyle=1;labelBackgroundColor=none;horizontal=1;" parent="1" vertex="1">
          <mxGeometry x="922" y="16" width="60" height="30" as="geometry" />
        </mxCell>
        <mxCell id="hdYtZ7cg-BLqjW4fkA_a-23" value="1..*" style="text;html=1;align=center;verticalAlign=middle;whiteSpace=wrap;rounded=0;fontFamily=Helvetica;fontSize=17;fontColor=light-dark(#0000CC,#121212);fontStyle=1;labelBackgroundColor=none;horizontal=1;" parent="1" vertex="1">
          <mxGeometry x="-7" y="1117" width="60" height="30" as="geometry" />
        </mxCell>
        <mxCell id="hdYtZ7cg-BLqjW4fkA_a-25" value="1..*" style="text;html=1;align=center;verticalAlign=middle;whiteSpace=wrap;rounded=0;fontFamily=Helvetica;fontSize=17;fontColor=light-dark(#0000CC,#121212);fontStyle=1;labelBackgroundColor=none;horizontal=1;" parent="1" vertex="1">
          <mxGeometry x="1172" y="122" width="60" height="30" as="geometry" />
        </mxCell>
        <mxCell id="_CxxBRgzNqZnSZEakOLy-12" value="1" style="text;html=1;align=center;verticalAlign=middle;whiteSpace=wrap;rounded=0;fontFamily=Helvetica;fontSize=17;fontColor=light-dark(#0000CC,#121212);fontStyle=1;labelBackgroundColor=none;horizontal=1;" parent="1" vertex="1">
          <mxGeometry x="-63" y="495" width="60" height="30" as="geometry" />
        </mxCell>
        <mxCell id="_CxxBRgzNqZnSZEakOLy-13" value="0..*" style="text;html=1;align=center;verticalAlign=middle;whiteSpace=wrap;rounded=0;fontFamily=Helvetica;fontSize=17;fontColor=light-dark(#0000CC,#121212);fontStyle=1;labelBackgroundColor=none;horizontal=1;" parent="1" vertex="1">
          <mxGeometry x="243" y="817" width="60" height="30" as="geometry" />
        </mxCell>
        <mxCell id="_CxxBRgzNqZnSZEakOLy-16" value="1..*" style="text;html=1;align=center;verticalAlign=middle;whiteSpace=wrap;rounded=0;fontFamily=Helvetica;fontSize=17;fontColor=light-dark(#0000CC,#121212);fontStyle=1;labelBackgroundColor=none;horizontal=1;" parent="1" vertex="1">
          <mxGeometry x="236" y="424" width="60" height="30" as="geometry" />
        </mxCell>
        <mxCell id="_CxxBRgzNqZnSZEakOLy-17" value="1" style="text;html=1;align=center;verticalAlign=middle;whiteSpace=wrap;rounded=0;fontFamily=Helvetica;fontSize=17;fontColor=light-dark(#0000CC,#121212);fontStyle=1;labelBackgroundColor=none;horizontal=1;" parent="1" vertex="1">
          <mxGeometry x="14" y="424" width="60" height="30" as="geometry" />
        </mxCell>
        <mxCell id="n7qIAD_MvcZAFEoEV1F9-3" value="1" style="text;html=1;align=center;verticalAlign=middle;whiteSpace=wrap;rounded=0;fontFamily=Helvetica;fontSize=17;fontColor=light-dark(#0000CC,#121212);fontStyle=1;labelBackgroundColor=none;horizontal=1;" vertex="1" parent="1">
          <mxGeometry x="432" y="495" width="60" height="30" as="geometry" />
        </mxCell>
        <mxCell id="n7qIAD_MvcZAFEoEV1F9-4" value="0..*" style="text;html=1;align=center;verticalAlign=middle;whiteSpace=wrap;rounded=0;fontFamily=Helvetica;fontSize=17;fontColor=light-dark(#0000CC,#121212);fontStyle=1;labelBackgroundColor=none;horizontal=1;" vertex="1" parent="1">
          <mxGeometry x="432" y="767" width="60" height="30" as="geometry" />
        </mxCell>
        <mxCell id="n7qIAD_MvcZAFEoEV1F9-5" value="0..*" style="text;html=1;align=center;verticalAlign=middle;whiteSpace=wrap;rounded=0;fontFamily=Helvetica;fontSize=17;fontColor=light-dark(#0000CC,#121212);fontStyle=1;labelBackgroundColor=none;horizontal=1;" vertex="1" parent="1">
          <mxGeometry x="543" y="814" width="60" height="30" as="geometry" />
        </mxCell>
        <mxCell id="n7qIAD_MvcZAFEoEV1F9-7" value="1" style="text;html=1;align=center;verticalAlign=middle;whiteSpace=wrap;rounded=0;fontFamily=Helvetica;fontSize=17;fontColor=light-dark(#0000CC,#121212);fontStyle=1;labelBackgroundColor=none;horizontal=1;" vertex="1" parent="1">
          <mxGeometry x="834" y="475" width="60" height="30" as="geometry" />
        </mxCell>
      </root>
    </mxGraphModel>
  </diagram>
</mxfile>
